<svg id="Layer_1" data-name="Layer 1" xmlns="http://www.w3.org/2000/svg" viewBox="0 0 766.14 766.14"><defs><style>.cls-1{fill:none;stroke:#fff;stroke-miterlimit:10;stroke-width:5px;}</style></defs><circle class="cls-1" cx="383.57" cy="383.57" r="375"/><circle class="cls-1" cx="383.57" cy="382.57" r="327"/><line class="cls-1" x1="383.57" y1="8.57" x2="383.57" y2="758.57"/><line class="cls-1" x1="648.4" y1="118.32" x2="118.07" y2="648.66"/><line class="cls-1" x1="758.23" y1="383.49" x2="8.23" y2="383.49"/><line class="cls-1" x1="648.4" y1="648.66" x2="118.07" y2="118.32"/><line class="cls-1" x1="383.57" y1="8.57" x2="648.57" y2="118.57"/><line class="cls-1" x1="758.57" y1="383.57" x2="648.57" y2="118.57"/><line class="cls-1" x1="648.57" y1="648.57" x2="758.57" y2="383.57"/><line class="cls-1" x1="383.57" y1="758.57" x2="648.57" y2="648.57"/><line class="cls-1" x1="117.57" y1="648.57" x2="383.57" y2="758.57"/><line class="cls-1" x1="8.57" y1="383.57" x2="117.57" y2="648.57"/><line class="cls-1" x1="117.57" y1="118.57" x2="8.57" y2="383.57"/><line class="cls-1" x1="383.57" y1="8.57" x2="117.57" y2="118.57"/><circle class="cls-1" cx="271.57" cy="270.57" r="159"/><circle class="cls-1" cx="496.57" cy="270.57" r="159"/><circle class="cls-1" cx="496.57" cy="496.57" r="159"/><circle class="cls-1" cx="271.57" cy="496.57" r="159"/><line class="cls-1" x1="383.57" y1="157.57" x2="607.57" y2="383.57"/><line class="cls-1" x1="383.57" y1="608.57" x2="607.57" y2="383.57"/><line class="cls-1" x1="159.57" y1="383.57" x2="383.57" y2="608.57"/><line class="cls-1" x1="383.57" y1="157.57" x2="159.57" y2="383.57"/></svg>